<svg xmlns="http://www.w3.org/2000/svg" width="167" height="96" viewBox="0 0 167 96"><path d="M167 96H0V0h167v96z" fill="none"/><path d="M4.005 18.94c2.04-3.516 4.874-6.351 8.446-8.447 3.572-2.154 7.482-3.23 11.735-3.23 7.086 0 12.528 2.72 16.212 8.162l-5.442 4.081c-2.551-3.911-6.291-5.837-11.167-5.837-4.365 0-8.051 1.586-11.168 4.819-3.118 3.23-4.649 6.858-4.649 10.997 0 3.628 1.191 6.575 3.628 8.9 2.438 2.325 5.612 3.458 9.524 3.458 4.025 0 7.596-1.531 10.714-4.649l4.421 4.591c-4.307 4.309-9.523 6.463-15.589 6.463-5.725 0-10.486-1.702-14.172-5.102C2.814 39.688 1 35.325 1 30.053c0-3.914 1.021-7.654 3.005-11.112zM38.31 47.454l5.84-28.572h6.858l-.907 4.026c2.098-3.063 4.989-4.591 8.73-4.591.624 0 1.531.055 2.665.225l-1.304 6.405a15.04 15.04 0 00-3.005-.283c-4.704 0-8.105 3.403-9.182 8.617L45.17 47.453h-6.86zm23.364-7.766l4.253-20.805h6.858l-4.137 20.182c-.172 1.028-.619 3.06 1.474 3.06.567 0 .963-.055 1.19-.112l-1.19 5.5c-.737.283-1.758.395-3.005.395-3.572 0-5.839-2.267-5.839-5.442 0-.51.114-1.474.397-2.777zm4.989-27.721c0-2.325 2.04-4.479 4.477-4.479 2.212 0 3.798 1.589 3.798 3.628 0 2.325-1.984 4.424-4.535 4.424-2.211 0-3.74-1.477-3.74-3.573zm6.522 35.487l.851-4.196 19.84-18.31H79.478l1.247-6.065h24.035l-1.019 4.707-19.103 17.8h16.212l-1.247 6.065H73.186zm35.885-24.205c3.288-3.345 7.142-4.989 11.621-4.989 5.216 0 8.956 2.097 10.033 4.366l.794-3.744h6.746l-4.139 20.24c-.149.737-.739 3.002 1.588 3.002.397 0 .849-.055 1.36-.112l-1.133 5.554c-.737.286-1.644.398-2.835.398-3.265 0-4.858-1.953-5.272-3.911-2.21 2.662-5.555 3.968-10.147 3.968-3.911 0-7.198-1.191-9.749-3.628-2.552-2.44-3.798-5.612-3.798-9.526 0-4.479 1.644-8.332 4.932-11.619zm9.977 18.651c2.777 0 5.158-.963 7.142-2.893 1.984-1.926 3.005-4.421 3.005-7.426 0-4.251-3.345-7.198-8.333-7.198-2.721 0-5.046 1.021-6.974 3.005-1.926 1.984-2.891 4.309-2.891 6.916 0 4.479 3.232 7.596 8.051 7.596zm22.352-3.968l6.065-29.988h6.86l-6.065 29.76c-.428 1.859-.472 4.309 3.066 4.309.48 0 .909-.065 1.525-.17l-1.191 5.953c-.623.228-1.586.34-2.891.34-4.761 0-7.765-2.835-7.765-7.086 0-.623.112-1.702.397-3.118zm20.633 10.316c-1.291 0-2.41-.431-3.298-1.291s-1.319-1.951-1.319-3.269.43-2.41 1.319-3.269c.889-.86 2.007-1.288 3.298-1.288s2.408.428 3.297 1.288c.918.86 1.376 1.951 1.376 3.269s-.459 2.41-1.376 3.269c-.889.86-2.007 1.291-3.297 1.291zm0-8.317c-2.151 0-3.7 1.547-3.7 3.756 0 2.179 1.548 3.701 3.7 3.701s3.727-1.522 3.727-3.701c0-2.209-1.577-3.756-3.727-3.756zm-1.692 6.281v-5.248h1.864c1.003 0 1.691.687 1.691 1.632 0 .69-.286 1.206-.86 1.522l1.263 2.094h-1.147l-1.147-1.923h-.688v1.923h-.975zm.975-2.726h.86c.43 0 .746-.374.746-.832 0-.428-.316-.772-.746-.772h-.86v1.604zM32.063 58.393h18.201v4.632H37.187v6.804h12.257v4.632H37.187v7.871H50.55v4.632H32.063V58.392zm31.316 7.461c3.485 0 5.862 1.558 6.599 3.444v-2.992h4.919v14.429c0 1.722.41 2.419 1.517 2.419.287 0 .738-.041 1.025-.082v3.977c-.615.246-1.558.328-2.419.328-.902 0-1.968-.123-2.869-.657a3.933 3.933 0 01-1.681-2.5c-1.189 1.763-3.361 3.238-7.092 3.238-5.821 0-10.33-4.673-10.33-10.822 0-6.107 4.509-10.781 10.33-10.781zm.656 17.094c3.567 0 6.313-2.705 6.313-6.313s-2.746-6.313-6.313-6.313c-3.484 0-6.107 2.706-6.107 6.313s2.624 6.313 6.107 6.313zm18.321-2.295c.861 1.393 2.788 2.582 5.452 2.582 2.828 0 3.689-1.189 3.689-2.255 0-1.722-2.46-2.132-5.657-3.28-3.033-1.107-5.083-2.664-5.083-5.82 0-3.976 3.361-6.19 7.297-6.19 3.197 0 5.329 1.27 6.682 3.033l-2.747 2.911c-.779-.984-2.008-1.722-4.017-1.722-1.558 0-2.5.738-2.5 1.845 0 1.558 1.721 1.763 5.206 3.033 3.812 1.353 5.534 3.157 5.534 6.149 0 3.566-2.582 6.558-8.485 6.558-4.304 0-7.256-1.721-8.527-4.181l3.157-2.664zm19.552 10.781c.738 0 1.312-.123 1.803-.451.451-.287.861-.902 1.189-1.763l.533-1.476-8.65-21.439h4.96l6.066 15.577 5.698-15.577h4.96l-9.264 24.022c-.533 1.435-1.23 2.746-2.213 3.689-1.312 1.23-2.992 1.721-4.96 1.721-.861 0-1.763-.123-2.419-.328v-4.304c.697.246 1.558.328 2.296.328zm21.043-33.04h6.026c2.171 0 4.816 1.701 4.816 4.837 0 2.89-2.458 4.837-4.816 4.837h-2.869v4.612h-3.156V58.394zm5.84 6.805c.636 0 1.845-.41 1.845-1.968 0-1.578-1.209-1.968-1.845-1.968h-2.684v3.935h2.684zm6.619-2.849h3.053v1.414c.473-1.045 1.578-1.64 2.993-1.64.287 0 .636.041.799.062v2.869a4.985 4.985 0 00-1.025-.102c-1.742 0-2.768 1.004-2.768 2.685v5.043h-3.053v-10.33zm13.159-.308c3.177 0 5.739 2.419 5.739 5.472s-2.562 5.473-5.739 5.473c-3.198 0-5.739-2.419-5.739-5.473s2.541-5.472 5.739-5.472zm0 8.178c1.496 0 2.685-1.189 2.685-2.706a2.686 2.686 0 00-2.685-2.705c-1.516 0-2.685 1.209-2.685 2.705 0 1.517 1.169 2.706 2.685 2.706z" fill="#010e3d"/></svg>