<svg xmlns="http://www.w3.org/2000/svg" viewBox="0 0 196 96" width="196" height="96"><path d="M32.391 19.65a23.083 23.083 0 018.418-8.426A22.173 22.173 0 0152.505 8c7.067 0 12.5 2.71 16.169 8.139l-5.436 4.069a12.5 12.5 0 00-11.129-5.825 14.84 14.84 0 00-11.137 4.808 15.257 15.257 0 00-4.659 10.966 11.65 11.65 0 003.65 8.907 13.112 13.112 0 009.49 3.449 14.645 14.645 0 0010.686-4.66l4.411 4.582a21.222 21.222 0 01-15.532 6.446c-5.708 0-10.453-1.7-14.127-5.087a17.086 17.086 0 01-5.482-13.054 22.01 22.01 0 012.982-11.09zm34.2 28.424l5.856-28.486h6.834l-.93 4.012a9.929 9.929 0 018.7-4.582 18.177 18.177 0 012.656.225l-1.3 6.384a15.548 15.548 0 00-3-.28c-4.659 0-8.076 3.394-9.156 8.59l-2.824 14.137zm23.291-7.743l4.24-20.743h6.842L96.842 39.71c-.179 1.025-.621 3.052 1.468 3.052a4.728 4.728 0 001.18-.116l-1.18 5.483a8.65 8.65 0 01-3 .4c-3.565 0-5.824-2.26-5.824-5.437a15.008 15.008 0 01.398-2.761zm4.98-27.671a4.581 4.581 0 014.465-4.434 3.61 3.61 0 013.782 3.658A4.511 4.511 0 0198.59 16.3a3.487 3.487 0 01-3.728-3.635zm6.5 35.414l.847-4.186L122 25.63h-14.36l1.243-6.042h23.966l-1.017 4.659-19.054 17.777h16.169l-1.242 6.05zm35.779-24.137a15.665 15.665 0 0111.587-4.97c5.2 0 8.931 2.089 10 4.349l.776-3.728h6.726l-4.121 20.192c-.148.776-.738 3 1.553 3a11.744 11.744 0 001.351-.117l-1.126 5.537a7.747 7.747 0 01-2.826.4c-3.254 0-4.847-1.941-5.258-3.883-2.206 2.656-5.537 3.961-10.1 3.961a13.517 13.517 0 01-9.716-3.619 12.5 12.5 0 01-3.79-9.5 15.822 15.822 0 014.94-11.618zm9.948 18.639a10.057 10.057 0 0010.1-10.291c0-4.24-3.339-7.175-8.31-7.175a9.317 9.317 0 00-6.95 3 9.6 9.6 0 00-2.882 6.9c.024 4.426 3.239 7.533 8.046 7.533zm22.289-4l6.042-29.9h6.842l-6.05 29.675c-.427 1.856-.466 4.3 3.06 4.3a8.439 8.439 0 001.553-.171l-1.2 5.91a9.139 9.139 0 01-2.882.334c-4.753 0-7.766-2.827-7.766-7.06a17.117 17.117 0 01.401-3.088zm20.573 10.29a4.6 4.6 0 01-3.293-1.258 4.7 4.7 0 010-6.523 4.86 4.86 0 016.578 0 4.559 4.559 0 010 6.523 4.591 4.591 0 01-3.285 1.258zm0-8.294a3.719 3.719 0 103.712 3.743 3.573 3.573 0 00-3.712-3.743zm-1.693 6.26v-5.227h1.864a1.553 1.553 0 011.685 1.623 1.624 1.624 0 01-.862 1.553l1.258 2.051h-1.142l-1.141-1.919h-.684v1.919zm.978-2.719h.855a.755.755 0 00.31-.064.77.77 0 00.259-.182.782.782 0 00.207-.585.775.775 0 00-.776-.776h-.855zM1 58.978h10.873a9.257 9.257 0 110 18.514H6.11v9.972H1zm10.624 13.9a4.66 4.66 0 000-9.319H6.11v9.319zm11.9-6.011h4.869v3.107c.979-2.128 3.184-3.48 6.128-3.48a10.871 10.871 0 011.475.125v4.745a9.8 9.8 0 00-2.05-.21 5.163 5.163 0 00-5.553 5.522V87.5h-4.871zm13.07 10.3c0-6.617 4.66-10.872 10.8-10.872s10.174 4.659 10.174 10.383c0 0 0 .9-.078 1.716H41.462c.163 3.27 2.57 5.436 6.213 5.436a7.089 7.089 0 005.552-2.33l2.913 2.78a11.148 11.148 0 01-8.628 3.712c-6.462 0-10.92-4.17-10.92-10.632zm15.983-2.2c0-2.455-2.33-4.5-5.188-4.5-3.067 0-5.6 2-5.809 4.5zm5.118-8.093h5.071L68.6 80.847l5.8-13.979h5.071l-8.8 20.6h-4.117zm21.978 10.3c0-6.617 4.66-10.872 10.787-10.872s10.182 4.659 10.182 10.383c0 0 0 .9-.086 1.716H84.533c.163 3.27 2.578 5.436 6.212 5.436a7.1 7.1 0 005.561-2.337l2.943 2.858a11.157 11.157 0 01-8.667 3.634c-6.453 0-10.872-4.17-10.872-10.632zm15.983-2.2c0-2.455-2.33-4.5-5.2-4.5-3.06 0-5.6 2-5.8 4.5zm8.255-8.093h4.862v2.944c.94-1.965 3.184-3.355 6.174-3.355 4.862 0 7.681 3.191 7.681 8.255v6.5c0 1.554.24 2.167 1.39 2.167a3.349 3.349 0 00.691-.078v4.124a7.811 7.811 0 01-2.12.249c-2.579 0-4.823-1.1-4.823-5.437v-6.839c0-2.78-1.6-4.574-4.334-4.574a4.535 4.535 0 00-4.659 4.776v11.851h-4.862zm33.838-.621A10.815 10.815 0 01146 69.8l-3.029 3.106a6.908 6.908 0 00-5.226-2.252 6.462 6.462 0 000 12.923 6.9 6.9 0 005.226-2.252l3.029 3.11a11.041 11.041 0 11-8.255-18.188zm10.538-4.66a2.921 2.921 0 11.229 1.118 2.934 2.934 0 01-.231-1.131zm.49 5.312h4.908v14.425c0 1.514.326 2.166 1.429 2.166a4.235 4.235 0 00.862-.085v4.131a6.876 6.876 0 01-2.454.327c-2.579 0-4.745-1.1-4.745-5.235zm19.127-.481c3.48 0 5.848 1.553 6.586 3.432v-2.995h4.9v14.391c0 1.716.412 2.407 1.554 2.407a9.011 9.011 0 001.025-.077v3.96a7.087 7.087 0 01-2.415.327 5.636 5.636 0 01-2.858-.653 3.879 3.879 0 01-1.732-2.493c-1.188 1.755-3.355 3.231-7.075 3.231-5.8 0-10.3-4.66-10.3-10.8S162.1 66.418 167.9 66.418zm.66 17.085a6.3 6.3 0 10-4.31-1.919 6.294 6.294 0 004.308 1.903zm24.782-3.417a4.908 4.908 0 00-6.663 0 4.752 4.752 0 000 6.609 4.908 4.908 0 006.663 0 4.66 4.66 0 000-6.609zm-3.331 7.044a3.766 3.766 0 112.663-1.1 3.77 3.77 0 01-2.665 1.087zm1.879-4.846a1.6 1.6 0 00-1.053-1.551 1.589 1.589 0 00-.655-.095H188.3v5.3h.994V84h.692l1.157 1.942h1.157l-1.282-2.12a1.633 1.633 0 00.87-1.538zm-1.74.9h-.862V81.57h.862a.818.818 0 01.573 1.366.766.766 0 01-.26.184.784.784 0 01-.315.065z" fill="#010e3d"/><path d="M196 96H0V0h196z" fill="none"/></svg>