<svg xmlns="http://www.w3.org/2000/svg" width="226" height="96" viewBox="0 0 226 96"><path d="M226 96H0V0h226v96z" fill="none"/><path d="M4.897 79.164c1.31 2.579 3.724 4.34 7.164 4.34 3.97 0 4.829-2.335 4.829-3.725 0-2.579-2.333-3.562-5.812-4.871-4.586-1.72-8.188-3.602-8.188-8.639 0-4.708 4.012-7.695 8.843-7.695 4.34 0 7.123 2.005 8.803 4.625l-3.646 2.498c-1.023-1.597-2.62-2.539-5.074-2.539-2.254 0-3.889 1.269-3.889 3.028 0 2.621 2.291 3.072 6.468 4.792 5.199 2.086 7.614 4.298 7.614 8.678 0 4.831-3.276 8.433-9.989 8.433-5.445 0-9.213-2.579-10.973-6.509l3.85-2.415zm30.129-12.649c-5.815 0-10.317 4.667-10.317 10.766 0 6.141 4.502 10.808 10.317 10.808 3.724 0 5.896-1.474 7.081-3.234a3.93 3.93 0 001.68 2.498c.9.53 1.965.655 2.864.655.861 0 1.803-.083 2.417-.327v-3.972a8.663 8.663 0 01-1.025.081c-1.104 0-1.514-.695-1.514-2.414V66.964h-4.914v2.989c-.736-1.884-3.111-3.438-6.59-3.438m.655 17.07c-3.481 0-6.1-2.702-6.1-6.305s2.62-6.305 6.1-6.305c3.56 0 6.305 2.702 6.305 6.305s-2.745 6.305-6.305 6.305m21.857 11.914V84.608c.695 1.924 3.113 3.438 6.591 3.438 5.813 0 10.317-4.665 10.317-10.766s-4.504-10.768-10.317-10.768c-3.479 0-5.896 1.516-6.591 3.438v-2.988h-4.912v28.535h4.912zm-.368-18.218c0-3.604 2.743-6.305 6.305-6.305 3.481 0 6.1 2.701 6.1 6.305s-2.62 6.305-6.1 6.305c-3.562 0-6.305-2.702-6.305-6.305m25.585 18.218V84.608c.695 1.924 3.113 3.438 6.59 3.438 5.815 0 10.317-4.665 10.317-10.766s-4.502-10.768-10.317-10.768c-3.477 0-5.894 1.516-6.59 3.438v-2.988H77.84v28.535h4.914zm-.37-18.218c0-3.604 2.745-6.305 6.305-6.305 3.482 0 6.1 2.701 6.1 6.305s-2.618 6.305-6.1 6.305c-3.56 0-6.305-2.702-6.305-6.305m20.672 10.317h4.873V75.725c0-2.824 1.882-4.789 4.544-4.789 2.62 0 4.134 1.801 4.134 4.584v6.877c0 4.299 2.292 5.405 4.829 5.405 1.148 0 1.886-.164 2.13-.245v-4.136c-.162.04-.449.081-.695.081-1.146 0-1.393-.655-1.393-2.169v-6.509c0-5.077-2.743-8.271-7.532-8.271-2.908 0-5.118 1.352-6.018 3.276V59.061h-4.873v28.535zm23.662-25.954c0 1.636 1.35 2.905 2.947 2.905 1.555 0 2.907-1.269 2.907-2.905s-1.352-2.908-2.907-2.908c-1.597 0-2.947 1.269-2.947 2.908m.489 21.123c0 4.136 2.171 5.241 4.75 5.241 1.269 0 2.088-.164 2.456-.327v-4.136c-.164.04-.572.081-.861.081-1.104 0-1.431-.655-1.431-2.169V66.964h-4.914v15.803zm10.479 4.831h4.873V76.75c0-3.4 2.169-5.528 5.567-5.528.778 0 1.475.083 2.047.206v-4.75a10.65 10.65 0 00-1.474-.121c-2.949 0-5.16 1.35-6.141 3.479v-3.07h-4.873V87.6zm12.689-10.152c0 6.466 4.461 10.644 10.931 10.644 3.111 0 6.018-.861 8.679-3.685l-2.949-2.866c-1.555 1.556-3.069 2.373-5.567 2.373-3.643 0-6.058-2.128-6.222-5.401h16.047c.081-.82.081-1.72.081-1.72 0-5.773-4.053-10.4-10.194-10.4-6.181 0-10.808 4.259-10.808 10.891v.164zm4.995-2.375c.204-2.498 2.745-4.503 5.813-4.503 2.866 0 5.201 2.046 5.201 4.503H155.37zm19.172 12.527v-5.51h-2.173v-1.327h5.731v1.327h-2.173v5.51h-1.386zm4.405 0v-6.857h.129l3.595 3.669 3.593-3.669h.129v6.857h-1.382v-3.761l-2.34 2.581-2.342-2.581v3.761h-1.382zM63.052 19.661c2.037-3.512 4.868-6.343 8.435-8.437 3.567-2.151 7.472-3.225 11.718-3.225 7.077 0 12.512 2.715 16.194 8.15l-5.437 4.076c-2.547-3.905-6.283-5.829-11.151-5.829-4.361 0-8.04 1.585-11.153 4.813-3.114 3.225-4.644 6.849-4.644 10.982 0 3.623 1.19 6.567 3.625 8.889 2.433 2.32 5.604 3.452 9.511 3.452 4.019 0 7.588-1.528 10.699-4.643l4.417 4.584c-4.301 4.303-9.511 6.456-15.57 6.456-5.716 0-10.472-1.701-14.153-5.097-3.679-3.452-5.491-7.81-5.491-13.076 0-3.908 1.019-7.644 3.002-11.097m41.11 28.477l2.831-14.153c1.076-5.208 4.474-8.607 9.171-8.607a15 15 0 013.002.283l1.301-6.398a18.495 18.495 0 00-2.66-.224c-3.736 0-6.623 1.526-8.72 4.584l.907-4.021h-6.848l-5.833 28.535h6.85zm16.482-7.757l4.246-20.778h6.85l-4.132 20.157c-.173 1.026-.618 3.055 1.472 3.055.565 0 .961-.055 1.188-.113l-1.188 5.495c-.736.282-1.755.394-3.002.394-3.567 0-5.831-2.264-5.831-5.437 0-.509.114-1.472.396-2.773m4.982-27.685c0-2.32 2.039-4.474 4.472-4.474 2.209 0 3.792 1.588 3.792 3.625 0 2.32-1.981 4.417-4.528 4.417-2.208 0-3.736-1.475-3.736-3.569m6.514 35.441l.849-4.19 19.815-18.287h-14.38l1.246-6.058h24.003l-1.018 4.701-19.079 17.778h16.192l-1.246 6.056h-26.382zM167.98 23.96c-3.283 3.283-4.926 7.132-4.926 11.604 0 3.908 1.245 7.077 3.792 9.514 2.549 2.433 5.833 3.623 9.737 3.623 4.586 0 7.926-1.305 10.134-3.963.414 1.956 2.005 3.905 5.266 3.905 1.188 0 2.095-.113 2.831-.398l1.132-5.547c-.509.058-.961.113-1.359.113-2.322 0-1.732-2.261-1.585-2.998l4.132-20.213h-6.736l-.794 3.739c-1.076-2.268-4.81-4.361-10.019-4.361-4.474 0-8.324 1.641-11.606 4.982m9.963 18.627c-4.812 0-8.039-3.114-8.039-7.586 0-2.604.961-4.926 2.886-6.907 1.926-1.982 4.246-3.002 6.965-3.002 4.981 0 8.322 2.944 8.322 7.188 0 3.002-1.02 5.493-3 7.417-1.982 1.928-4.361 2.889-7.134 2.889m22.323-3.963c-.283 1.414-.396 2.491-.396 3.113 0 4.246 3 7.077 7.755 7.077 1.303 0 2.266-.113 2.886-.34l1.19-5.945c-.614.106-1.044.169-1.521.169-3.535 0-3.491-2.445-3.063-4.301l6.056-29.722h-6.85l-6.056 29.949m20.605 10.302c-1.289 0-2.407-.43-3.294-1.289s-1.317-1.949-1.317-3.266.43-2.407 1.317-3.266 2.005-1.287 3.294-1.287 2.405.428 3.292 1.287c.917.859 1.375 1.949 1.375 3.266s-.458 2.407-1.375 3.266c-.887.859-2.004 1.289-3.292 1.289m0-8.306c-2.148 0-3.694 1.546-3.694 3.752 0 2.176 1.546 3.695 3.694 3.695s3.722-1.519 3.722-3.695c0-2.206-1.574-3.752-3.722-3.752m-1.69 6.273v-5.241h1.861c1.002 0 1.69.687 1.69 1.63 0 .688-.285 1.206-.859 1.521l1.26 2.09h-1.146l-1.144-1.921h-.688v1.921h-.974zm.974-2.722h.859c.428 0 .745-.373.745-.831 0-.428-.317-.771-.745-.771h-.859v1.602zM188.46 73.15V59.385h2.468v5.372h6.616v-5.372h2.449V73.15h-2.449v-6.162h-6.616v6.162h-2.468zm14.594 0V59.385h5.352c1.244 0 2.291.415 3.16 1.264.869.829 1.304 1.856 1.304 3.101 0 1.797-1.007 3.278-2.508 3.91l3.337 5.49h-2.785l-2.942-4.898h-2.449v4.898h-2.468zm2.468-7.11h2.627c1.343 0 2.271-.928 2.271-2.251 0-1.264-.888-2.172-2.074-2.172h-2.824v4.424z" fill="#010e3d"/></svg>