<svg xmlns="http://www.w3.org/2000/svg" width="173" height="96" viewBox="0 0 173 96"><path d="M173 96H0V0h173v96z" fill="none"/><path d="M4.015 18.852c2.047-3.527 4.889-6.371 8.473-8.474 3.583-2.161 7.506-3.24 11.772-3.24 7.108 0 12.568 2.728 16.264 8.187l-5.459 4.094c-2.559-3.923-6.311-5.856-11.202-5.856-4.379 0-8.076 1.591-11.204 4.834-3.127 3.24-4.664 6.88-4.664 11.031 0 3.64 1.195 6.596 3.64 8.928 2.446 2.332 5.63 3.469 9.555 3.469 4.037 0 7.621-1.536 10.748-4.664l4.435 4.606c-4.321 4.322-9.553 6.484-15.639 6.484-5.743 0-10.519-1.707-14.217-5.118-3.696-3.469-5.516-7.846-5.516-13.135 0-3.926 1.024-7.679 3.015-11.147zm34.414 28.604l5.859-28.662h6.88l-.91 4.039c2.105-3.073 5.005-4.606 8.757-4.606.626 0 1.536.055 2.673.226l-1.308 6.426a15.065 15.065 0 00-3.015-.283c-4.719 0-8.131 3.414-9.212 8.645l-2.844 14.217h-6.881zm23.438-7.791l4.266-20.871h6.88l-4.15 20.246c-.173 1.031-.621 3.069 1.478 3.069.568 0 .966-.055 1.193-.113l-1.193 5.517c-.739.283-1.763.396-3.015.396-3.583 0-5.857-2.274-5.857-5.459 0-.512.114-1.478.398-2.786zm5.005-27.809c0-2.332 2.047-4.493 4.492-4.493 2.219 0 3.81 1.594 3.81 3.64 0 2.332-1.99 4.438-4.549 4.438-2.218 0-3.752-1.481-3.752-3.585zm6.543 35.6l.853-4.21 19.903-18.369H79.727l1.251-6.084h24.111l-1.023 4.722-19.164 17.856h16.264l-1.251 6.084H73.414zm35.999-24.282c3.298-3.356 7.165-5.005 11.658-5.005 5.232 0 8.985 2.103 10.065 4.38l.797-3.755h6.767l-4.152 20.304c-.149.74-.741 3.012 1.593 3.012.398 0 .852-.055 1.364-.113l-1.137 5.572c-.739.287-1.649.399-2.844.399-3.275 0-4.873-1.959-5.289-3.923-2.218 2.67-5.572 3.981-10.18 3.981-3.923 0-7.221-1.195-9.78-3.64-2.561-2.448-3.81-5.63-3.81-9.556 0-4.493 1.649-8.358 4.947-11.656zm10.009 18.71c2.786 0 5.174-.966 7.165-2.902 1.99-1.933 3.015-4.435 3.015-7.45 0-4.264-3.356-7.221-8.36-7.221-2.73 0-5.062 1.024-6.996 3.015-1.933 1.99-2.9 4.322-2.9 6.938 0 4.493 3.242 7.621 8.076 7.621zm22.423-3.981L147.93 7.82h6.881l-6.084 29.854c-.43 1.865-.473 4.322 3.076 4.322.481 0 .912-.065 1.53-.171l-1.195 5.971c-.625.229-1.591.341-2.9.341-4.777 0-7.79-2.844-7.79-7.108 0-.625.113-1.707.398-3.127zm20.698 10.349c-1.296 0-2.417-.433-3.309-1.295-.892-.863-1.323-1.957-1.323-3.28s.431-2.417 1.323-3.28c.892-.863 2.013-1.292 3.309-1.292s2.416.43 3.307 1.292c.921.863 1.381 1.957 1.381 3.28s-.46 2.417-1.381 3.28c-.892.863-2.013 1.295-3.307 1.295zm0-8.343c-2.158 0-3.711 1.552-3.711 3.768 0 2.186 1.553 3.713 3.711 3.713s3.739-1.527 3.739-3.713c0-2.216-1.582-3.768-3.739-3.768zm-1.698 6.301v-5.264h1.87c1.006 0 1.696.689 1.696 1.637 0 .692-.287 1.21-.863 1.527l1.267 2.1h-1.151l-1.151-1.929h-.69v1.929h-.978zm.978-2.734h.863c.431 0 .748-.375.748-.835 0-.43-.317-.774-.748-.774h-.863v1.609zM66.622 58.431h11.144c5.1 0 9.294 3.907 9.294 9.088 0 3.783-2.139 6.868-5.223 8.143l6.949 11.432h-5.798L76.86 76.895h-5.1v10.199h-5.14V58.431zm10.61 13.859c2.796 0 4.729-1.933 4.729-4.688 0-2.632-1.85-4.524-4.318-4.524h-5.881v9.212h5.47zm23.767-6.539c6.25 0 11.308 4.77 11.308 10.98s-5.058 10.98-11.308 10.98c-6.292 0-11.309-4.771-11.309-10.98s5.017-10.98 11.309-10.98zm0 17.478c3.619 0 6.414-2.838 6.414-6.498s-2.796-6.498-6.414-6.498c-3.661 0-6.415 2.838-6.415 6.498s2.755 6.498 6.415 6.498zm25.124-17.519c3.084 0 5.922 1.028 8.307 3.578l-3.043 3.166c-1.399-1.439-3.043-2.262-5.264-2.262-3.619 0-6.374 2.756-6.374 6.498s2.755 6.498 6.374 6.498c2.221 0 3.865-.823 5.264-2.262l3.043 3.166c-2.385 2.549-5.223 3.578-8.307 3.578-6.251 0-11.268-4.647-11.268-10.98s5.016-10.98 11.268-10.98zm11.101-7.279h4.894v16.737l7.649-8.801h5.675l-8.102 9.253 8.965 11.473h-5.593l-6.538-8.348-2.056 2.303v6.045h-4.894V58.43zm22.874 28.663v-5.535h-2.184v-1.333h5.757v1.333h-2.182v5.535h-1.391zm4.425 0v-6.887h.129l3.61 3.684 3.61-3.684h.129v6.887h-1.388v-3.777l-2.351 2.592-2.351-2.592v3.777h-1.388z" fill="#010e3d"/></svg>